 <svg version="1.1" xmlns="http://www.w3.org/2000/svg" xmlns:xlink="http://www.w3.org/1999/xlink" width="1000" height="1000"><defs/><g><path fill="none" stroke="black" paint-order="fill stroke markers" d=" M 950 500 A 450 450 0 1 1 949.9997750000188 499.55000007499973" stroke-miterlimit="10" stroke-width="3.75" stroke-dasharray=""/><path fill="none" stroke="black" paint-order="fill stroke markers" d=" M 372.7157735194819 836.7472727272727 A 360 360 0 0 1 163.2527272727272 627.2842264805179" stroke-miterlimit="10" stroke-width="3.75" stroke-dasharray=""/><path fill="none" stroke="black" paint-order="fill stroke markers" d=" M 163.25272727272727 372.71577351948207 A 360 360 0 0 1 482.5143397969288 140.42490118577075" stroke-miterlimit="10" stroke-width="3.75" stroke-dasharray=""/><path fill="none" stroke="black" paint-order="fill stroke markers" d=" M 517.4856602030712 140.42490118577075 A 360 360 0 0 1 836.7472727272727 372.71577351948184" stroke-miterlimit="10" stroke-width="3.75" stroke-dasharray=""/><path fill="none" stroke="black" paint-order="fill stroke markers" d=" M 836.7472727272727 627.2842264805181 A 360 360 0 0 1 627.2842264805181 836.7472727272727" stroke-miterlimit="10" stroke-width="3.75" stroke-dasharray=""/><path fill="none" stroke="black" paint-order="fill stroke markers" d=" M 372.715773519482 836.7472727272727 A 140.4 140.4 0 0 1 627.284226480518 836.7472727272727" stroke-miterlimit="10" stroke-width="3.75" stroke-dasharray=""/><path fill="none" stroke="black" paint-order="fill stroke markers" d=" M 804.1858582251266 777.1858582251266 A 27 27 0 1 1 804.1858447251277 777.1588582296266" stroke-miterlimit="10" stroke-width="3.75" stroke-dasharray=""/><path fill="none" stroke="black" paint-order="fill stroke markers" d=" M 836.7472727272727 627.284226480518 A 140.4 140.4 0 0 1 836.7472727272727 372.715773519482" stroke-miterlimit="10" stroke-width="3.75" stroke-dasharray=""/><path fill="#000000" stroke="none" paint-order="stroke fill markers" d=" M 792.1505409511088 561.2192178121053 A 4.875 4.875 0 1 1 792.150538513609 561.2143428129178"/><path fill="#000000" stroke="none" paint-order="stroke fill markers" d=" M 776.1 500 A 4.875 4.875 0 1 1 776.0999975625002 499.9951250008125"/><path fill="#000000" stroke="none" paint-order="stroke fill markers" d=" M 792.1505409511088 438.7807821878948 A 4.875 4.875 0 1 1 792.150538513609 438.77590718870727"/><path fill="none" stroke="black" paint-order="fill stroke markers" d=" M 517.4856602030713 140.42490118577075 A 108 108 0 1 1 482.51433979692865 140.42490118577075" stroke-miterlimit="10" stroke-width="3.75" stroke-dasharray=""/><path fill="#000000" stroke="none" paint-order="stroke fill markers" d=" M 561.9969105585669 319.5963357142706 A 4.875 4.875 0 1 1 561.9969081210671 319.5914607150831"/><path fill="#000000" stroke="none" paint-order="stroke fill markers" d=" M 504.875 339.375 A 4.875 4.875 0 1 1 504.8749975625002 339.3701250008125"/><path fill="#000000" stroke="none" paint-order="stroke fill markers" d=" M 447.7530894414331 319.5963357142706 A 4.875 4.875 0 1 1 447.7530870039333 319.5914607150831"/><path fill="none" stroke="black" paint-order="fill stroke markers" d=" M 527 247 A 27 27 0 1 1 526.9999865000011 246.9730000045" stroke-miterlimit="10" stroke-width="3.75" stroke-dasharray=""/><path fill="none" stroke="black" paint-order="fill stroke markers" d=" M 163.25272727272727 372.71577351948196 A 140.4 140.4 0 0 1 163.25272727272727 627.2842264805179" stroke-miterlimit="10" stroke-width="3.75" stroke-dasharray=""/><path fill="none" stroke="black" paint-order="fill stroke markers" d=" M 506.2705554930743 273.26176181843624 L 660.7654085289527 920.3028472667286" stroke-miterlimit="10" stroke-width="3.75" stroke-dasharray=""/><path fill="none" stroke="black" paint-order="fill stroke markers" d=" M 236.31161378378448 546.9659116586768 L 860.9725947470151 768.6983175265659" stroke-miterlimit="10" stroke-width="3.75" stroke-dasharray=""/><path fill="none" stroke="black" paint-order="fill stroke markers" d=" M 238.38406347654012 459.3418706341127 L 883.2885437414545 264.2249117558109" stroke-miterlimit="10" stroke-width="3.75" stroke-dasharray=""/><path fill="none" stroke="black" paint-order="fill stroke markers" d=" M 240.82895740503503 531.4642084828316 L 910.0534020039705 685.3542756587237" stroke-miterlimit="10" stroke-width="3.75" stroke-dasharray=""/></g></svg>