<?xml version="1.0" standalone="no"?>
<!DOCTYPE svg PUBLIC "-//W3C//DTD SVG 20010904//EN"
 "http://www.w3.org/TR/2001/REC-SVG-20010904/DTD/svg10.dtd">
<svg version="1.0" xmlns="http://www.w3.org/2000/svg"
 width="1748.000000pt" height="1748.000000pt" viewBox="0 0 1748.000000 1748.000000"
 preserveAspectRatio="xMidYMid meet">
<metadata>
Created by potrace 1.11, written by Peter Selinger 2001-2013
</metadata>
<g transform="translate(0.000000,1748.000000) scale(0.100000,-0.100000)"
fill="#000000" stroke="none">
<path d="M8565 17416 c-93 -35 -312 -115 -485 -179 -173 -64 -353 -131 -400
-149 l-85 -33 0 -768 c0 -422 1 -767 2 -767 1 0 14 5 30 11 15 6 62 23 103 39
41 15 152 55 245 90 141 51 566 209 720 266 37 14 46 14 90 -1 28 -9 59 -20
70 -25 11 -5 47 -18 80 -30 33 -11 69 -24 80 -29 11 -5 54 -21 95 -36 41 -15
109 -40 150 -55 41 -15 192 -71 335 -123 143 -52 267 -98 275 -101 13 -6 15
83 15 764 0 506 -3 770 -10 770 -5 1 -28 9 -50 20 -22 11 -44 19 -48 20 -8 0
-398 142 -442 160 -11 5 -47 18 -80 30 -33 12 -163 60 -289 106 -125 46 -229
84 -230 83 0 0 -77 -29 -171 -63z"/>
<path d="M8608 15665 c-4 -4 -241 -90 -408 -148 -25 -9 -103 -37 -175 -62 -71
-26 -141 -51 -155 -55 -14 -4 -77 -27 -140 -50 -63 -23 -133 -47 -155 -55 -22
-7 -78 -27 -125 -45 -47 -17 -101 -35 -120 -41 -19 -6 -69 -23 -110 -39 -41
-16 -136 -49 -210 -75 -74 -25 -151 -52 -170 -60 -19 -8 -114 -41 -210 -75
-96 -34 -236 -83 -310 -110 -144 -51 -558 -198 -805 -285 -193 -69 -429 -152
-480 -171 -22 -8 -60 -22 -85 -30 -132 -46 -560 -197 -590 -209 -32 -13 -327
-117 -430 -152 -25 -8 -52 -18 -60 -22 -8 -4 -41 -16 -73 -26 l-57 -18 2 -321
3 -321 180 0 180 0 2 -5461 3 -5460 -173 1 c-94 0 -178 -1 -184 -3 -10 -3 -13
-76 -13 -322 0 -294 1 -318 18 -323 9 -3 82 -28 162 -57 80 -28 156 -55 170
-60 14 -4 97 -34 185 -65 88 -32 228 -81 310 -110 83 -29 215 -76 295 -105 80
-29 165 -59 190 -67 25 -8 54 -18 65 -23 11 -5 135 -49 275 -99 140 -49 327
-115 415 -147 88 -31 192 -68 230 -81 39 -13 106 -37 150 -53 44 -16 222 -79
395 -140 173 -61 324 -115 335 -119 11 -5 47 -18 80 -29 78 -27 506 -178 570
-202 28 -10 133 -48 235 -83 102 -36 289 -102 415 -147 127 -46 267 -95 313
-111 l82 -28 0 7835 c0 4309 -4 7834 -8 7834 -5 0 -11 -2 -14 -5z"/>
<path d="M8850 7835 l0 -7834 153 53 c83 30 294 104 467 166 173 61 389 138
480 170 91 32 228 81 305 108 77 28 358 127 625 221 267 94 494 175 505 180
11 5 79 30 150 54 277 96 651 228 670 237 11 5 72 27 135 49 63 22 212 74 330
116 118 42 229 81 245 87 17 6 125 44 240 85 267 95 545 193 568 200 16 5 17
29 17 327 l0 321 -185 -1 -185 -1 3 5461 2 5461 183 0 182 0 0 321 0 322 -52
16 c-29 9 -62 21 -73 25 -11 5 -112 41 -225 81 -113 39 -304 107 -425 150
-121 43 -299 106 -395 140 -96 34 -238 84 -315 112 -201 71 -263 94 -615 218
-173 61 -353 125 -400 141 -47 17 -94 34 -105 39 -11 4 -110 40 -220 78 -223
78 -795 280 -895 317 -190 68 -879 312 -1117 396 l-53 18 0 -7834z"/>
</g>
</svg>
